<svg id="arrow-down-square" xmlns="http://www.w3.org/2000/svg" width="27.156" height="27.156" viewBox="0 0 27.156 27.156">
  <path id="Path_242" data-name="Path 242" d="M23.762,1.7H3.395a1.7,1.7,0,0,0-1.7,1.7V23.762a1.7,1.7,0,0,0,1.7,1.7H23.762a1.7,1.7,0,0,0,1.7-1.7V3.395A1.7,1.7,0,0,0,23.762,1.7ZM3.395,0A3.4,3.4,0,0,0,0,3.395V23.762a3.4,3.4,0,0,0,3.395,3.395H23.762a3.4,3.4,0,0,0,3.395-3.395V3.395A3.4,3.4,0,0,0,23.762,0Z" fill="#2b463c" fill-rule="evenodd"/>
  <path id="Path_243" data-name="Path 243" d="M10.373,17.122a.849.849,0,0,1,1.2,0l4.491,4.493,4.491-4.493a.85.85,0,1,1,1.2,1.2l-5.092,5.092a.849.849,0,0,1-1.2,0l-5.092-5.092a.849.849,0,0,1,0-1.2Z" transform="translate(-2.487 -4.145)" fill="#2b463c" fill-rule="evenodd"/>
  <path id="Path_244" data-name="Path 244" d="M17.724,10.125a.849.849,0,0,1,.849.849V19.46a.849.849,0,0,1-1.7,0V10.974A.849.849,0,0,1,17.724,10.125Z" transform="translate(-4.146 -2.487)" fill="#2b463c" fill-rule="evenodd"/>
</svg>
