<svg xmlns="http://www.w3.org/2000/svg" width="57.61" height="10.049" viewBox="0 0 57.61 10.049">
  <g id="Group_2849" data-name="Group 2849" transform="translate(-152 -274)">
    <g id="Group_2516" data-name="Group 2516" transform="translate(95 -1010)">
      <path id="star" d="M8.428,10.855,5.208,8.494,1.926,10.768l1.25-3.792L0,4.557l3.993.018L5.311.806l1.217,3.8,3.992.09L7.28,7.031Z" transform="translate(57 1283.194)" fill="#ffc300"/>
      <path id="star-2" data-name="star" d="M8.428,10.855,5.208,8.494,1.926,10.768l1.25-3.792L0,4.557l3.993.018L5.311.806l1.217,3.8,3.992.09L7.28,7.031Z" transform="translate(68.773 1283.194)" fill="#ffc300"/>
      <path id="star-3" data-name="star" d="M8.428,10.855,5.208,8.494,1.926,10.768l1.25-3.792L0,4.557l3.993.018L5.311.806l1.217,3.8,3.992.09L7.28,7.031Z" transform="translate(80.545 1283.194)" fill="#ffc300"/>
      <path id="star-4" data-name="star" d="M8.428,10.855,5.208,8.494,1.926,10.768l1.25-3.792L0,4.557l3.993.018L5.311.806l1.217,3.8,3.992.09L7.28,7.031Z" transform="translate(92.318 1283.194)" fill="#ffc300"/>
      <path id="star-5" data-name="star" d="M8.428,10.855,5.208,8.494,1.926,10.768l1.25-3.792L0,4.557l3.993.018L5.311.806l1.217,3.8,3.992.09L7.28,7.031Z" transform="translate(104.09 1283.194)" fill="#ffc300"/>
    </g>
  </g>
</svg>
